<svg width="19" height="17" viewBox="0 0 19 17" fill="none" xmlns="http://www.w3.org/2000/svg">
  <path fill-rule="evenodd" clip-rule="evenodd" d="M0.590478 12.6181C0.708067 12.6674 0.831144 12.6913 0.952956 12.6913C1.20101 12.6913 1.44379 12.5918 1.6245 12.4053L3.82027 10.1674H6.3004V10.4321C6.3004 12.6616 8.07859 14.4753 10.264 14.4753H15.1785L17.374 16.7151C17.5566 16.9014 17.799 17 18.0464 17C18.1695 17 18.2936 16.9757 18.4121 16.9255C18.7693 16.7747 19 16.4224 19 16.0279V8.35206C19 6.12256 17.2218 4.3089 15.0364 4.3089H12.6981V4.04273C12.6981 1.81366 10.9204 0 8.73493 0H3.96298C1.77777 -0.000215348 0 1.81345 0 4.04251V11.7184C0 12.1148 0.2318 12.4678 0.590478 12.6181ZM15.0364 5.67183C16.4852 5.67183 17.6639 6.87434 17.6639 8.35206V15.0834L16.0109 13.397C15.831 13.2135 15.5916 13.1125 15.3372 13.1125H10.264C8.81516 13.1125 7.63652 11.91 7.63652 10.4323V8.35206C7.63652 6.87412 8.81537 5.67183 10.264 5.67183H15.0364ZM3.96298 1.36272C2.51454 1.36272 1.33612 2.56479 1.33612 4.04251V10.7724L2.98891 9.0879C3.16857 8.90507 3.40754 8.8045 3.66193 8.8045H6.3004V8.35184C6.3004 6.12256 8.07838 4.30868 10.264 4.30868H11.362V4.04251C11.362 2.56479 10.1836 1.36272 8.73493 1.36272H3.96298Z" fill="white"/>
</svg>
