<svg width="137" height="137" viewBox="0 0 137 137" fill="none" xmlns="http://www.w3.org/2000/svg">
<path fill-rule="evenodd" clip-rule="evenodd" d="M62.5895 2.72724C64.0921 0.993662 66.2633 0 68.562 0C72.9221 0 76.4703 3.54619 76.4703 7.90385C76.4703 11.3341 74.2612 14.2333 71.1981 15.324V21.0769H74.7506C76.4325 21.0769 78.0448 21.5941 79.405 22.5795L84.3889 26.2124C84.4197 26.2376 84.4407 26.2663 84.4616 26.2947C84.4799 26.3197 84.4981 26.3445 84.5227 26.3667C84.546 26.3853 84.5736 26.4003 84.6012 26.4154C84.6362 26.4344 84.6713 26.4534 84.6978 26.4799L91.9471 33.7251L107.187 41.0835C113.377 44.0712 117.957 49.5833 119.76 56.212L136.905 119.268C137.09 119.942 137.006 120.664 136.648 121.264C136.3 121.87 135.716 122.305 135.041 122.489L114.694 128.026C114.462 128.089 114.231 128.118 114.004 128.118C112.891 128.118 111.865 127.408 111.502 126.307L100.185 91.8925V134.365C100.185 135.82 99.0039 137 97.5488 137H39.5545C38.0994 137 36.9184 135.82 36.9184 134.365V91.5323L25.4885 126.307C25.1247 127.408 24.0987 128.118 22.9862 128.118C22.7595 128.118 22.523 128.089 22.2963 128.026L1.94888 122.499C1.27404 122.315 0.690472 121.87 0.342507 121.264C-0.00545877 120.664 -0.0891551 119.942 0.0953721 119.268L17.2403 56.2223C19.0434 49.5883 23.6237 44.0659 29.8133 41.0835L45.2798 33.6222L52.4261 26.4799C52.4505 26.4556 52.4794 26.4416 52.5089 26.4273C52.5368 26.4138 52.5653 26.4001 52.5909 26.377C52.6145 26.3558 52.6343 26.329 52.6541 26.302C52.6785 26.2689 52.7031 26.2356 52.7351 26.2124L57.7086 22.5898C59.0689 21.5992 60.6915 21.0769 62.3733 21.0769H65.9259V13.1731C65.9259 11.7188 67.1068 10.5385 68.562 10.5385C70.0171 10.5385 71.1981 9.35815 71.1981 7.90385C71.1928 5.68023 68.0297 4.49926 66.5746 6.17488C65.6203 7.27615 63.9539 7.39619 62.8573 6.44246C61.7554 5.48873 61.6353 3.82324 62.5895 2.72724ZM74.7506 26.3462H62.363C61.8041 26.3462 61.2666 26.5185 60.8184 26.8504L58.3265 28.6617L68.562 38.8812L78.7872 28.6617L76.2952 26.8504C75.8418 26.5185 75.3095 26.3462 74.7506 26.3462ZM54.2899 32.0682L65.3183 43.0904C65.3179 43.0945 65.3174 43.0986 65.3167 43.1026L65.3156 43.1089C65.3149 43.113 65.314 43.1171 65.3131 43.1211C65.3104 43.1329 65.307 43.1444 65.3036 43.156C65.2956 43.1838 65.2874 43.212 65.2874 43.2447C65.2874 43.2764 65.2951 43.3022 65.3029 43.3286C65.3093 43.3505 65.3159 43.3728 65.3183 43.3991L61.7452 46.9703L50.5623 35.7937L54.2899 32.0682ZM86.5616 35.7937L82.834 32.0682L71.8056 43.0904C71.808 43.1167 71.8146 43.1389 71.821 43.1608L71.8211 43.1609C71.8289 43.1873 71.8365 43.2131 71.8365 43.2447C71.8365 43.2775 71.8283 43.3056 71.8203 43.3335C71.8141 43.3549 71.8079 43.3762 71.8056 43.3991L75.3685 46.9703L86.5616 35.7937ZM46.289 38.9841L59.8814 52.5585C60.398 53.0749 61.0806 53.3304 61.7555 53.3304C62.4303 53.3304 63.1026 53.0696 63.6193 52.5585L68.5723 47.6083L73.515 52.5585C74.0316 53.0749 74.7142 53.3304 75.3891 53.3304C76.0639 53.3304 76.7362 53.0696 77.2529 52.5585L90.8041 39.0149L104.901 45.8279C109.715 48.1516 113.281 52.4428 114.683 57.6013L128.266 107.525L112.325 111.858L99.9584 74.2529C99.505 72.8724 98.0137 72.1172 96.6323 72.5651C95.251 73.0183 94.5005 74.5087 94.9539 75.8893L95.0054 76.0642C94.9967 76.0928 94.9875 76.1201 94.9785 76.1466L94.9784 76.1471C94.9495 76.2329 94.923 76.3114 94.923 76.4038V131.731H42.2009V76.4038C42.2009 76.2526 42.1617 76.1141 42.1221 75.974C42.1065 75.9189 42.0908 75.8635 42.0774 75.8069C42.4728 74.4475 41.7436 73.0077 40.3886 72.5651C38.9968 72.112 37.5057 72.8724 37.0523 74.2529L24.6956 111.858L8.75538 107.525L22.3272 57.6013C23.7296 52.4428 27.2961 48.1516 32.1096 45.8279L46.289 38.9841ZM65.9259 57.9615C65.9259 56.5065 67.1061 55.3269 68.562 55.3269C70.0178 55.3269 71.1981 56.5065 71.1981 57.9615C71.1981 59.4166 70.0178 60.5962 68.562 60.5962C67.1061 60.5962 65.9259 59.4166 65.9259 57.9615ZM68.562 65.8654C67.1061 65.8654 65.9259 67.0449 65.9259 68.5C65.9259 69.9551 67.1061 71.1346 68.562 71.1346C70.0178 71.1346 71.1981 69.9551 71.1981 68.5C71.1981 67.0449 70.0178 65.8654 68.562 65.8654ZM65.9259 79.0385C65.9259 77.5834 67.1061 76.4038 68.562 76.4038C70.0178 76.4038 71.1981 77.5834 71.1981 79.0385C71.1981 80.4935 70.0178 81.6731 68.562 81.6731C67.1061 81.6731 65.9259 80.4935 65.9259 79.0385ZM68.562 86.9423C67.1061 86.9423 65.9259 88.1219 65.9259 89.5769C65.9259 91.032 67.1061 92.2115 68.562 92.2115C70.0178 92.2115 71.1981 91.032 71.1981 89.5769C71.1981 88.1219 70.0178 86.9423 68.562 86.9423ZM65.9259 100.115C65.9259 98.6603 67.1061 97.4808 68.562 97.4808C70.0178 97.4808 71.1981 98.6603 71.1981 100.115C71.1981 101.57 70.0178 102.75 68.562 102.75C67.1061 102.75 65.9259 101.57 65.9259 100.115ZM68.562 108.019C67.1061 108.019 65.9259 109.199 65.9259 110.654C65.9259 112.109 67.1061 113.288 68.562 113.288C70.0178 113.288 71.1981 112.109 71.1981 110.654C71.1981 109.199 70.0178 108.019 68.562 108.019ZM23.048 116.87L7.36525 112.609L5.87214 118.105L21.2666 122.283L23.048 116.87ZM129.635 112.609L131.128 118.105L115.734 122.283L113.952 116.87L129.635 112.609ZM65.9259 121.192C65.9259 119.737 67.1061 118.558 68.562 118.558C70.0178 118.558 71.1981 119.737 71.1981 121.192C71.1981 122.647 70.0178 123.827 68.562 123.827C67.1061 123.827 65.9259 122.647 65.9259 121.192Z" fill="white"/>
</svg>
