<svg width="24" height="24" viewBox="0 0 24 24" fill="none" xmlns="http://www.w3.org/2000/svg">
<path fill-rule="evenodd" clip-rule="evenodd" d="M12 24C18.6274 24 24 18.6274 24 12C24 5.37258 18.6274 0 12 0C5.37258 0 0 5.37258 0 12C0 18.6274 5.37258 24 12 24Z" fill="#C3C8D0"/>
<path fill-rule="evenodd" clip-rule="evenodd" d="M11.6721 6C13.6948 6 15.3442 7.64932 15.3442 9.67208C15.3442 11.5548 13.9282 13.1108 12.0922 13.313V15.8804H13.5548C13.7882 15.8804 13.9749 16.0671 13.9749 16.3005C13.9749 16.5339 13.7882 16.7206 13.5548 16.7206H12.0922V18.2299C12.0922 18.4633 11.9055 18.65 11.6721 18.65C11.4387 18.65 11.252 18.4633 11.252 18.2299V16.7206H9.78936C9.55597 16.7206 9.36925 16.5339 9.36925 16.3005C9.36925 16.0671 9.55597 15.8804 9.78936 15.8804H11.252V13.3286C9.41593 13.1108 8 11.5548 8 9.67208C8 7.64932 9.64932 6 11.6721 6ZM8.85578 9.67208C8.85578 11.228 10.1161 12.4884 11.6721 12.4884C13.228 12.4884 14.4884 11.228 14.4884 9.67208C14.4884 8.11611 13.228 6.85578 11.6721 6.85578C10.1161 6.85578 8.85578 8.11611 8.85578 9.67208Z" fill="white"/>
</svg>
