<svg width="31" height="22" viewBox="0 0 31 22" fill="none" xmlns="http://www.w3.org/2000/svg">
<path fill-rule="evenodd" clip-rule="evenodd" d="M0.268398 17.3892C0.0670996 17.8503 0 18.3114 0 18.7725C0 19.1018 0.0670996 19.497 0.268398 20.1557C0.402597 20.485 0.536797 20.8144 0.805195 21.0778C1.07359 21.3413 1.34199 21.5389 1.67749 21.7365C2.01299 21.9341 2.34848 22 2.75108 22H28.1818C28.5844 22 28.987 21.9341 29.3225 21.7365C29.658 21.6048 29.9264 21.3413 30.1948 21.0778C30.4632 20.7485 30.6645 20.485 30.7987 20.0898C30.9329 19.7605 31 19.3653 31 18.9701C31 18.4431 30.8658 17.982 30.6645 17.5868C30.4632 17.1916 30.1277 16.8623 29.658 16.5988L16.6407 9.02395L16.5736 8.95808V7.97006C16.5736 7.57485 16.5065 7.17964 16.3723 6.91617C16.2381 6.58683 16.0368 6.32335 15.7684 6.12575L14.9632 5.53293C14.6948 5.4012 14.4264 5.13772 14.2251 4.94012C14.0238 4.74252 13.8896 4.41317 13.8896 4.01796C13.8896 3.55689 14.0238 3.16168 14.3593 2.83234C14.6948 2.50299 15.0974 2.30539 15.5671 2.30539C15.9697 2.30539 16.3052 2.37126 16.5065 2.50299C16.7749 2.63473 16.9091 2.76647 17.0433 2.96407C17.1557 3.07443 17.221 3.27724 17.2787 3.45633C17.2899 3.49102 17.3008 3.52482 17.3117 3.55689L17.513 4.1497C17.5801 4.34731 17.7143 4.47904 17.8485 4.61078C17.9827 4.74252 18.184 4.80838 18.4524 4.80838C18.855 4.80838 19.1234 4.67665 19.2576 4.41317C19.4589 4.1497 19.526 3.88623 19.526 3.55689C19.526 3.02994 19.3918 2.56886 19.1905 2.10778C18.9892 1.64671 18.7208 1.31737 18.3182 0.988024C17.9156 0.658683 17.513 0.461078 17.0433 0.263473C16.5736 0.0658683 16.0368 0 15.5671 0C15.0303 0 14.5606 0.131737 14.0909 0.329341C13.6212 0.526946 13.2186 0.790419 12.8831 1.11976C12.5476 1.4491 12.2792 1.84431 12.0779 2.30539C11.8766 2.76647 11.8095 3.22755 11.8095 3.75449C11.8095 4.21557 11.8766 4.67665 12.0108 5.07186C12.145 5.46707 12.3463 5.86228 12.6818 6.19162C12.7489 6.25748 12.8831 6.38922 13.0844 6.52096L13.6883 6.91617C13.8896 7.0479 14.0909 7.24551 14.2251 7.37725C14.4264 7.50898 14.4935 7.64072 14.4935 7.77246V7.90419V8.16766V8.2994V8.43114V8.56287V8.62874L1.20779 16.3353C0.738095 16.5988 0.469697 16.9281 0.268398 17.3892ZM2.34848 19.1677C2.28139 18.9701 2.21429 18.7725 2.21429 18.6407V18.2455C2.28139 18.1138 2.34848 18.0479 2.48268 17.982L15.2316 10.6707C15.2987 10.6048 15.3658 10.6048 15.3658 10.6048H15.5H15.6342C15.6603 10.6304 15.6762 10.6461 15.6939 10.6595C15.7216 10.6806 15.7535 10.6963 15.8355 10.7365L28.316 17.982C28.4502 18.0479 28.5173 18.1138 28.5844 18.2455C28.6515 18.3114 28.6515 18.509 28.6515 18.6407C28.6515 18.7725 28.5844 18.9701 28.5173 19.1677C28.3831 19.3653 28.2489 19.497 28.0476 19.497H2.75108C2.61688 19.497 2.48268 19.3653 2.34848 19.1677Z" fill="#C3C8D0"/>
</svg>
