<svg width="28" height="25" viewBox="0 0 28 25" fill="none" xmlns="http://www.w3.org/2000/svg">
<path fill-rule="evenodd" clip-rule="evenodd" d="M0.870178 18.2292C1.04347 18.3005 1.22484 18.335 1.40436 18.335C1.76991 18.335 2.12769 18.1913 2.394 17.9219L5.62987 14.6888H9.2848V15.0712C9.2848 18.2921 11.9053 20.9123 15.1259 20.9123H22.3683L25.6038 24.1481C25.8729 24.4172 26.2301 24.5597 26.5947 24.5597C26.7761 24.5597 26.959 24.5246 27.1336 24.4521C27.66 24.2343 28 23.7253 28 23.1554V12.0661C28 8.8452 25.3795 6.22502 22.1589 6.22502H18.713V5.84049C18.713 2.62018 16.0932 0 12.8725 0H5.84018C2.61987 -0.000311111 0 2.61987 0 5.84018V16.9294C0 17.5022 0.3416 18.0121 0.870178 18.2292ZM22.1589 8.19404C24.294 8.19404 26.031 9.93129 26.031 12.0661V21.7908L23.595 19.3545C23.3299 19.0895 22.9771 18.9436 22.6022 18.9436H15.1259C12.9908 18.9436 11.2538 17.2063 11.2538 15.0715V12.0661C11.2538 9.93098 12.9911 8.19404 15.1259 8.19404H22.1589ZM5.84018 1.96871C3.70564 1.96871 1.96902 3.70533 1.96902 5.84018V15.5627L4.40471 13.1292C4.66947 12.8651 5.02164 12.7198 5.39653 12.7198H9.2848V12.0658C9.2848 8.8452 11.905 6.22471 15.1259 6.22471H16.744V5.84018C16.744 3.70533 15.0074 1.96871 12.8725 1.96871H5.84018Z" fill="#C3C8D0"/>
</svg>
