<svg width="38" height="34" viewBox="0 0 38 34" fill="none" xmlns="http://www.w3.org/2000/svg">
<path fill-rule="evenodd" clip-rule="evenodd" d="M1.18096 24.7397C1.41613 24.8364 1.66229 24.8832 1.90591 24.8832C2.40202 24.8832 2.88758 24.6882 3.249 24.3225L7.64053 19.9348H12.6008V20.4537C12.6008 24.825 16.1572 28.3809 20.528 28.3809H30.3569L34.748 32.7725C35.1133 33.1377 35.598 33.3311 36.0928 33.3311C36.339 33.3311 36.5872 33.2834 36.8241 33.185C37.5385 32.8894 38 32.1987 38 31.4252V16.3755C38 12.0042 34.4436 8.44824 30.0728 8.44824H25.3962V7.92638C25.3962 3.55596 21.8407 0 17.4699 0H7.92596C3.55553 -0.000422222 0 3.55553 0 7.92596V22.9756C0 23.753 0.4636 24.445 1.18096 24.7397ZM30.0728 11.1205C32.9705 11.1205 35.3278 13.4782 35.3278 16.3755V29.5733L32.0218 26.2669C31.662 25.9071 31.1832 25.7091 30.6744 25.7091H20.528C17.6303 25.7091 15.273 23.3514 15.273 20.4541V16.3755C15.273 13.4778 17.6307 11.1205 20.528 11.1205H30.0728ZM7.92596 2.67182C5.02909 2.67182 2.67224 5.02867 2.67224 7.92596V21.1208L5.97782 17.8182C6.33713 17.4597 6.81509 17.2626 7.32387 17.2626H12.6008V16.375C12.6008 12.0042 16.1568 8.44782 20.528 8.44782H22.724V7.92596C22.724 5.02867 20.3672 2.67182 17.4699 2.67182H7.92596Z" fill="url(#paint0_linear)"/>
<defs>
<linearGradient id="paint0_linear" x1="0" y1="0" x2="0" y2="33.3311" gradientUnits="userSpaceOnUse">
<stop stop-color="#5CEAF0"/>
<stop offset="1" stop-color="#1899E8"/>
</linearGradient>
</defs>
</svg>
