<svg width="44" height="31" viewBox="0 0 44 31" fill="none" xmlns="http://www.w3.org/2000/svg">
<path fill-rule="evenodd" clip-rule="evenodd" d="M0.380952 24.3449C0.0952381 24.9904 0 25.6359 0 26.2814C0 26.7425 0.0952381 27.2958 0.380952 28.218C0.571429 28.679 0.761905 29.1401 1.14286 29.509C1.52381 29.8778 1.90476 30.1545 2.38095 30.4311C2.85714 30.7078 3.33333 30.8 3.90476 30.8H40C40.5714 30.8 41.1429 30.7078 41.619 30.4311C42.0952 30.2467 42.4762 29.8778 42.8571 29.509C43.2381 29.0479 43.5238 28.679 43.7143 28.1257C43.9048 27.6647 44 27.1114 44 26.5581C44 25.8204 43.8095 25.1749 43.5238 24.6216C43.2381 24.0683 42.7619 23.6072 42.0952 23.2383L23.619 12.6335L23.5238 12.5413V11.1581C23.5238 10.6048 23.4286 10.0515 23.2381 9.68263C23.0476 9.22156 22.7619 8.85269 22.381 8.57605L21.2381 7.74611C20.8571 7.56168 20.4762 7.19282 20.1905 6.91618L20.1905 6.91617C19.9048 6.63952 19.7143 6.17844 19.7143 5.62515C19.7143 4.97964 19.9048 4.42635 20.381 3.96527C20.8571 3.50419 21.4286 3.22755 22.0952 3.22755C22.6667 3.22755 23.1429 3.31976 23.4286 3.50419C23.8095 3.68862 24 3.87305 24.1905 4.1497C24.35 4.3042 24.4428 4.58814 24.5247 4.83886C24.5405 4.88743 24.556 4.93475 24.5714 4.97964L24.8571 5.80958C24.9524 6.08623 25.1429 6.27066 25.3333 6.45509C25.5238 6.63952 25.8095 6.73174 26.1905 6.73174C26.7619 6.73174 27.1429 6.54731 27.3333 6.17844C27.619 5.80958 27.7143 5.44072 27.7143 4.97964C27.7143 4.24192 27.5238 3.59641 27.2381 2.9509C26.9524 2.30539 26.5714 1.84431 26 1.38323C25.4286 0.922156 24.8571 0.645509 24.1905 0.368862C23.5238 0.0922156 22.7619 0 22.0952 0C21.3333 0 20.6667 0.184431 20 0.461078C19.3333 0.737725 18.7619 1.10659 18.2857 1.56766C17.8095 2.02874 17.4286 2.58204 17.1429 3.22755C16.8571 3.87305 16.7619 4.51856 16.7619 5.25629C16.7619 5.9018 16.8571 6.54731 17.0476 7.1006C17.2381 7.65389 17.5238 8.20719 18 8.66826C18.0952 8.76048 18.2857 8.94491 18.5714 9.12934L19.4286 9.68263C19.7143 9.86707 20 10.1437 20.1905 10.3281C20.4762 10.5126 20.5714 10.697 20.5714 10.8814V11.0659V11.4347V11.6192V11.8036V11.988V12.0802L1.71429 22.8695C1.04762 23.2383 0.666667 23.6994 0.380952 24.3449ZM3.33333 26.8347C3.2381 26.5581 3.14286 26.2814 3.14286 26.097V25.5437C3.2381 25.3593 3.33333 25.2671 3.52381 25.1749L21.619 14.9389C21.7143 14.8467 21.8095 14.8467 21.8095 14.8467H22H22.1905C22.2857 14.9389 22.2857 14.9389 22.4762 15.0311L40.1905 25.1749C40.381 25.2671 40.4762 25.3593 40.5714 25.5437C40.6667 25.6359 40.6667 25.9126 40.6667 26.097C40.6667 26.2814 40.5714 26.558 40.4762 26.8347L40.4762 26.8347C40.2857 27.1114 40.0952 27.2958 39.8095 27.2958H3.90476C3.71429 27.2958 3.52381 27.1114 3.33333 26.8347Z" fill="url(#paint0_linear)"/>
<defs>
<linearGradient id="paint0_linear" x1="-27.6484" y1="13.1002" x2="3.52272" y2="76.1125" gradientUnits="userSpaceOnUse">
<stop stop-color="#3FF2D7"/>
<stop offset="1" stop-color="#0062F2"/>
</linearGradient>
</defs>
</svg>
