<svg width="375" height="34" viewBox="0 0 375 34" fill="none" xmlns="http://www.w3.org/2000/svg">
<path fill-rule="evenodd" clip-rule="evenodd" d="M-85 0L-68 12L-51 0L-34 12L-17 0L0 12L17 0L34 12L51 0L68 12L85 0L102 12L119 0L136 12L153 0L170 12L187 0L204 12L221 0L238 12L255 0L272 12L289 0L306 12L323 0L340 12L357 0L374 12L391 0L408 12L425 0L442 12L459 0V8L442 20L425 8L408 20L391 8L374 20L357 8L340 20L323 8L306 20L289 8L272 20L255 8L238 20L221 8L204 20L187 8L170 20L153 8L136 20L119 8L102 20L85 8L68 20L51 8L34 20L17 8L0 20L-17 8L-34 20L-51 8L-68 20L-85 8V0Z" fill="#FFF95C"/>
<path fill-rule="evenodd" clip-rule="evenodd" d="M-85 14L-68 26L-51 14L-34 26L-17 14L0 26L17 14L34 26L51 14L68 26L85 14L102 26L119 14L136 26L153 14L170 26L187 14L204 26L221 14L238 26L255 14L272 26L289 14L306 26L323 14L340 26L357 14L374 26L391 14L408 26L425 14L442 26L459 14V22L442 34L425 22L408 34L391 22L374 34L357 22L340 34L323 22L306 34L289 22L272 34L255 22L238 34L221 22L204 34L187 22L170 34L153 22L136 34L119 22L102 34L85 22L68 34L51 22L34 34L17 22L0 34L-17 22L-34 34L-51 22L-68 34L-85 22V14Z" fill="#FFF95C"/>
</svg>
