<svg width="76" height="76" viewBox="0 0 76 76" fill="none" xmlns="http://www.w3.org/2000/svg">
<g filter="url(#filter0_d)">
<path fill-rule="evenodd" clip-rule="evenodd" d="M38 65C54.5685 65 68 51.5685 68 35C68 18.4315 54.5685 5 38 5C21.4315 5 8 18.4315 8 35C8 51.5685 21.4315 65 38 65Z" fill="url(#paint0_linear)"/>
<path fill-rule="evenodd" clip-rule="evenodd" d="M38 65C54.5685 65 68 51.5685 68 35C68 18.4315 54.5685 5 38 5C21.4315 5 8 18.4315 8 35C8 51.5685 21.4315 65 38 65Z" stroke="#F1F1F1" stroke-width="4"/>
</g>
<path d="M33.6341 25.1112C30.1426 25.1112 28 28.2351 28 30.7974C28 36.3377 34.1552 41.4804 38.5 44.7543C42.8448 41.4804 49 36.3377 49 30.7974C49 28.2351 46.8574 25.1112 43.3659 25.1112C41.4159 25.1112 39.75 26.7017 38.5 28.2127C37.25 26.7017 35.5841 25.1112 33.6341 25.1112Z" fill="#2FD0DD"/>
<defs>
<filter id="filter0_d" x="0" y="0" width="76" height="76" filterUnits="userSpaceOnUse" color-interpolation-filters="sRGB">
<feFlood flood-opacity="0" result="BackgroundImageFix"/>
<feColorMatrix in="SourceAlpha" type="matrix" values="0 0 0 0 0 0 0 0 0 0 0 0 0 0 0 0 0 0 127 0"/>
<feOffset dy="3"/>
<feGaussianBlur stdDeviation="3"/>
<feColorMatrix type="matrix" values="0 0 0 0 0 0 0 0 0 0 0 0 0 0 0 0 0 0 0.240631 0"/>
<feBlend mode="normal" in2="BackgroundImageFix" result="effect1_dropShadow"/>
<feBlend mode="normal" in="SourceGraphic" in2="effect1_dropShadow" result="shape"/>
</filter>
<linearGradient id="paint0_linear" x1="8" y1="5" x2="8" y2="65" gradientUnits="userSpaceOnUse">
<stop stop-color="#ECECEC"/>
<stop offset="1" stop-color="white"/>
</linearGradient>
</defs>
</svg>
