<svg width="164" height="99" viewBox="0 0 164 99" fill="none" xmlns="http://www.w3.org/2000/svg">
<path fill-rule="evenodd" clip-rule="evenodd" d="M156.325 82.1569C156.831 83.3012 157 84.4455 157 85.5898C157 86.4072 156.831 87.388 156.325 89.0228C155.987 89.8401 155.649 90.6575 154.974 91.3114C154.299 91.9653 153.623 92.4557 152.779 92.9461C151.935 93.4365 151.091 93.6 150.078 93.6H86.0909C85.0779 93.6 84.0649 93.4365 83.2208 92.9461C82.3766 92.6192 81.7013 91.9653 81.026 91.3114C80.3506 90.494 79.8442 89.8401 79.5065 88.8593C79.1688 88.0419 79 87.0611 79 86.0802C79 84.7725 79.3377 83.6281 79.8442 82.6473C80.3506 81.6665 81.1948 80.8491 82.3766 80.1952L115.13 61.3958L115.299 61.2323V58.7802C115.299 57.7994 115.468 56.8186 115.805 56.1647C116.143 55.3473 116.649 54.6934 117.325 54.203L119.351 52.7317C120.026 52.4048 120.701 51.7509 121.208 51.2605C121.714 50.7701 122.052 49.9527 122.052 48.9719C122.052 47.8275 121.714 46.8467 120.87 46.0293C120.026 45.212 119.013 44.7216 117.831 44.7216C116.818 44.7216 115.974 44.885 115.468 45.212C114.792 45.5389 114.455 45.8659 114.117 46.3563C113.834 46.6302 113.67 47.1335 113.524 47.578C113.496 47.6641 113.469 47.748 113.442 47.8275L112.935 49.2988C112.766 49.7892 112.429 50.1162 112.091 50.4431C111.753 50.7701 111.247 50.9335 110.571 50.9335C109.558 50.9335 108.883 50.6066 108.545 49.9527C108.039 49.2988 107.87 48.6449 107.87 47.8275C107.87 46.5198 108.208 45.3754 108.714 44.2311C109.221 43.0868 109.896 42.2695 110.909 41.4521C111.922 40.6347 112.935 40.1443 114.117 39.6539C115.299 39.1635 116.649 39 117.831 39C119.182 39 120.364 39.3269 121.545 39.8174C122.727 40.3078 123.74 40.9617 124.584 41.779C125.429 42.5964 126.104 43.5772 126.61 44.7216C127.117 45.8659 127.286 47.0102 127.286 48.318C127.286 49.4623 127.117 50.6066 126.779 51.5874C126.442 52.5683 125.935 53.5491 125.091 54.3665C124.922 54.5299 124.584 54.8569 124.078 55.1838L122.558 56.1647C122.052 56.4916 121.545 56.982 121.208 57.309C120.701 57.6359 120.532 57.9629 120.532 58.2898V58.6168V59.2707V59.5976V59.9246V60.2515V60.415L153.961 79.5413C155.143 80.1952 155.818 81.0126 156.325 82.1569ZM151.091 86.5707C151.26 86.0802 151.429 85.5898 151.429 85.2629V84.282C151.26 83.9551 151.091 83.7916 150.753 83.6281L118.675 65.4826C118.506 65.3192 118.338 65.3192 118.338 65.3192H118H117.662C117.597 65.3826 117.557 65.4214 117.513 65.4547C117.443 65.5072 117.363 65.546 117.156 65.6461L85.7533 83.6281C85.4156 83.7916 85.2468 83.9551 85.0779 84.282C84.9091 84.4455 84.9091 84.9359 84.9091 85.2629C84.9091 85.5898 85.0779 86.0802 85.2468 86.5707C85.5844 87.0611 85.9221 87.388 86.4286 87.388H150.078C150.416 87.388 150.753 87.0611 151.091 86.5707Z" fill="white"/>
<g filter="url(#filter0_d)">
<path fill-rule="evenodd" clip-rule="evenodd" d="M92 85H99L98 97H93L92 85Z" fill="url(#paint0_linear)"/>
</g>
<g filter="url(#filter1_d)">
<path fill-rule="evenodd" clip-rule="evenodd" d="M135 85H142L141 97H136L135 85Z" fill="url(#paint1_linear)"/>
</g>
<path fill-rule="evenodd" clip-rule="evenodd" d="M-13 2.41776L123.318 9.8995C123.318 9.8995 137.651 2.79505 141.433 0.475322C144.358 -1.31776 147.065 2.32479 144.717 5.3628C142.369 8.4008 132.289 13.2343 132.289 13.2343C132.289 13.2343 153.97 10.6106 160.045 9.09137C166.122 7.5726 164.603 14.4037 159.493 16.4759C154.384 18.5471 135.744 19.3447 135.744 19.3447C135.744 19.3447 159.043 28.8372 162.118 32.0042C164.977 34.9495 162.256 39.1966 154.798 36.8492C147.341 34.5017 130.282 24.8057 130.282 24.8057C130.282 24.8057 136.016 29.2539 132.012 39.4733C128.531 48.3551 125.383 52.1783 122.207 51.0734C119.326 50.0708 120.4 43.0633 123.3 37.6783C126.201 32.2919 121.753 25.4833 116.644 25.7591C111.533 26.0358 109.226 29.9445 113.921 33.6731C118.21 37.0791 120.55 43.0633 119.169 47.7587C117.788 52.454 112.407 52.0913 109.507 43.5293C106.607 34.9672 95.444 37.4561 93.6208 19.8632L-13 24.8057V2.41776Z" fill="white"/>
<defs>
<filter id="filter0_d" x="90" y="83" width="11" height="16" filterUnits="userSpaceOnUse" color-interpolation-filters="sRGB">
<feFlood flood-opacity="0" result="BackgroundImageFix"/>
<feColorMatrix in="SourceAlpha" type="matrix" values="0 0 0 0 0 0 0 0 0 0 0 0 0 0 0 0 0 0 127 0"/>
<feOffset/>
<feGaussianBlur stdDeviation="1"/>
<feColorMatrix type="matrix" values="0 0 0 0 0 0 0 0 0 0 0 0 0 0 0 0 0 0 0.100742 0"/>
<feBlend mode="normal" in2="BackgroundImageFix" result="effect1_dropShadow"/>
<feBlend mode="normal" in="SourceGraphic" in2="effect1_dropShadow" result="shape"/>
</filter>
<filter id="filter1_d" x="133" y="83" width="11" height="16" filterUnits="userSpaceOnUse" color-interpolation-filters="sRGB">
<feFlood flood-opacity="0" result="BackgroundImageFix"/>
<feColorMatrix in="SourceAlpha" type="matrix" values="0 0 0 0 0 0 0 0 0 0 0 0 0 0 0 0 0 0 127 0"/>
<feOffset/>
<feGaussianBlur stdDeviation="1"/>
<feColorMatrix type="matrix" values="0 0 0 0 0 0 0 0 0 0 0 0 0 0 0 0 0 0 0.100742 0"/>
<feBlend mode="normal" in2="BackgroundImageFix" result="effect1_dropShadow"/>
<feBlend mode="normal" in="SourceGraphic" in2="effect1_dropShadow" result="shape"/>
</filter>
<linearGradient id="paint0_linear" x1="92" y1="85" x2="92" y2="97" gradientUnits="userSpaceOnUse">
<stop stop-color="#EFEFEF"/>
<stop offset="1" stop-color="white"/>
</linearGradient>
<linearGradient id="paint1_linear" x1="135" y1="85" x2="135" y2="97" gradientUnits="userSpaceOnUse">
<stop stop-color="#EFEFEF"/>
<stop offset="1" stop-color="white"/>
</linearGradient>
</defs>
</svg>
