<?xml version="1.0" encoding="UTF-8"?>
<svg width="177px" height="94px" viewBox="0 0 177 94" version="1.1" xmlns="http://www.w3.org/2000/svg" xmlns:xlink="http://www.w3.org/1999/xlink">
    <!-- Generator: Sketch 52.6 (67491) - http://www.bohemiancoding.com/sketch -->
    <title>match_hand</title>
    <desc>Created with Sketch.</desc>
    <g id="UI" stroke="none" stroke-width="1" fill="none" fill-rule="evenodd">
        <g id="Assets" transform="translate(-1144.000000, -326.000000)" fill="#FFFFFF">
            <g id="match_hand" transform="translate(1144.000000, 326.000000)">
                <path d="M7,85.5898204 C7,84.445509 7.16883117,83.3011976 7.67532468,82.1568862 C8.18181818,81.0125749 8.85714286,80.1952096 10.038961,79.5413174 L43.4675325,60.4149701 C43.4675325,60.4149701 43.4675325,60.4149701 43.4675325,60.251497 C43.4675325,60.088024 43.4675325,59.9245509 43.4675325,59.9245509 L43.4675325,59.5976048 L43.4675325,59.2706587 C43.4675325,59.1071856 43.4675325,58.9437126 43.4675325,58.6167665 C43.4675325,58.4532934 43.4675325,58.2898204 43.4675325,58.2898204 C43.4675325,57.9628743 43.2987013,57.6359281 42.7922078,57.308982 C42.4545455,56.9820359 41.9480519,56.4916168 41.4415584,56.1646707 C40.9350649,55.8377246 40.4285714,55.5107784 39.9220779,55.1838323 C39.4155844,54.8568862 39.0779221,54.5299401 38.9090909,54.3664671 C38.0649351,53.5491018 37.5584416,52.5682635 37.2207792,51.5874251 C36.8831169,50.6065868 36.7142857,49.4622754 36.7142857,48.3179641 C36.7142857,47.0101796 36.8831169,45.8658683 37.3896104,44.7215569 C37.8961039,43.5772455 38.5714286,42.5964072 39.4155844,41.7790419 C40.2597403,40.9616766 41.2727273,40.3077844 42.4545455,39.8173653 C43.6363636,39.3269461 44.8181818,39 46.1688312,39 C47.3506494,39 48.7012987,39.1634731 49.8831169,39.6538922 C51.0649351,40.1443114 52.0779221,40.6347305 53.0909091,41.4520958 C54.1038961,42.2694611 54.7792208,43.0868263 55.2857143,44.2311377 C55.7922078,45.3754491 56.1298701,46.5197605 56.1298701,47.8275449 C56.1298701,48.6449102 55.961039,49.2988024 55.4545455,49.9526946 C55.1168831,50.6065868 54.4415584,50.9335329 53.4285714,50.9335329 C52.7532468,50.9335329 52.2467532,50.7700599 51.9090909,50.4431138 C51.5714286,50.1161677 51.2337662,49.7892216 51.0649351,49.2988024 C50.8961039,48.8083832 50.7272727,48.3179641 50.5584416,47.8275449 C50.3896104,47.3371257 50.2207792,46.6832335 49.8831169,46.3562874 C49.5454545,45.8658683 49.2077922,45.5389222 48.5324675,45.211976 C48.025974,44.8850299 47.1818182,44.7215569 46.1688312,44.7215569 C44.987013,44.7215569 43.974026,45.211976 43.1298701,46.0293413 C42.2857143,46.8467066 41.9480519,47.8275449 41.9480519,48.9718563 C41.9480519,49.9526946 42.2857143,50.7700599 42.7922078,51.260479 C43.2987013,51.7508982 43.974026,52.4047904 44.6493506,52.7317365 C45.3246753,53.2221557 46,53.7125749 46.6753247,54.202994 C47.3506494,54.6934132 47.8571429,55.3473054 48.1948052,56.1646707 C48.5324675,56.8185629 48.7012987,57.7994012 48.7012987,58.7802395 C48.7012987,59.7610778 48.7012987,60.5784431 48.7012987,61.2323353 L48.8701299,61.3958084 L81.6233766,80.1952096 C82.8051948,80.8491018 83.6493506,81.6664671 84.1558442,82.6473054 C84.6623377,83.6281437 85,84.7724551 85,86.0802395 C85,87.0610778 84.8311688,88.0419162 84.4935065,88.8592814 C84.1558442,89.8401198 83.6493506,90.494012 82.974026,91.3113772 C82.2987013,91.9652695 81.6233766,92.6191617 80.7792208,92.9461078 C79.9350649,93.4365269 78.9220779,93.6 77.9090909,93.6 L13.9220779,93.6 C12.9090909,93.6 12.0649351,93.4365269 11.2207792,92.9461078 C10.3766234,92.4556886 9.7012987,91.9652695 9.02597403,91.3113772 C8.35064935,90.657485 8.01298701,89.8401198 7.67532468,89.0227545 C7.16883117,87.388024 7,86.4071856 7,85.5898204 Z M12.5714286,85.2628743 C12.5714286,85.5898204 12.7402597,86.0802395 12.9090909,86.5706587 C13.2467532,87.0610778 13.5844156,87.388024 13.9220779,87.388024 L77.5714286,87.388024 C78.0779221,87.388024 78.4155844,87.0610778 78.7532468,86.5706587 C78.9220779,86.0802395 79.0909091,85.5898204 79.0909091,85.2628743 C79.0909091,84.9359281 79.0909091,84.445509 78.9220779,84.2820359 C78.7532468,83.9550898 78.5844156,83.7916168 78.2467532,83.6281437 L46.8441558,65.6461078 C46.5064935,65.4826347 46.5064935,65.4826347 46.3376623,65.3191617 C46.3376623,65.3191617 46.1688312,65.3191617 46,65.3191617 C45.8311688,65.3191617 45.8311688,65.3191617 45.6623377,65.3191617 C45.6623377,65.3191617 45.4935065,65.3191617 45.3246753,65.4826347 L13.2467532,83.6281437 C12.9090909,83.7916168 12.7402597,83.9550898 12.5714286,84.2820359 C12.5714286,84.608982 12.5714286,84.9359281 12.5714286,85.2628743 Z" id="Shape-Copy" fill-rule="nonzero"></path>
                <g id="maozinha" fill-rule="evenodd">
                    <path d="M177,0.417756125 L40.6816133,7.89949542 C31.9881478,6.99173907 21.4449484,7.89949542 17.5579999,7.89949542 C11.2251332,7.89949542 11.884911,13.388024 16.2378891,13.388024 C20.5908672,13.388024 31.9881478,13 31.9881478,13 C31.9881478,13 14.0507169,15.1006742 8.00399604,16.2791661 C1.95727517,17.457658 1.97282549,23.8950792 8.00399604,22.8056513 C14.0351666,21.7162235 27.9450565,17.8632172 27.9450565,17.8632172 C27.9450565,17.8632172 4.9572097,26.8372095 1.88240584,30.0042479 C-0.977343348,32.9495411 1.74429296,37.1966318 9.20191096,34.8491907 C16.6590511,32.5017495 33.7176653,22.8056513 33.7176653,22.8056513 C33.7176653,22.8056513 27.9838299,27.2539377 31.9881478,37.4733355 C35.4686882,46.3550933 38.6170885,50.1782874 41.793207,49.0733843 C44.6744617,48.0707517 43.5996662,41.0633148 40.6997735,35.6783459 C37.7994029,30.2919433 42.2467334,23.4833125 47.3564323,23.7590604 C52.4666092,24.035764 54.7743847,27.9445021 50.0790244,31.6730722 C45.7898785,35.0790602 43.4500838,41.0633148 44.8307347,45.758675 C46.2123415,50.4540353 51.5925314,50.0913098 54.492902,41.5292666 C57.3932727,32.9672234 68.5560436,35.4561227 70.3792293,17.8632172 L177,22.8056513 L177,0.417756125 Z" id="Fill-1-Copy-2"></path>
                </g>
            </g>
        </g>
    </g>
</svg>