<svg width="161" height="99" viewBox="0 0 161 99" fill="none" xmlns="http://www.w3.org/2000/svg">
<path fill-rule="evenodd" clip-rule="evenodd" d="M7.67532 82.1569C7.16883 83.3012 7 84.4455 7 85.5898C7 86.4072 7.16883 87.388 7.67532 89.0228C8.01299 89.8401 8.35065 90.6575 9.02597 91.3114C9.7013 91.9653 10.3766 92.4557 11.2208 92.9461C12.0649 93.4365 12.9091 93.6 13.9221 93.6H77.9091C78.9221 93.6 79.9351 93.4365 80.7792 92.9461C81.6234 92.6192 82.2987 91.9653 82.974 91.3114C83.6494 90.494 84.1558 89.8401 84.4935 88.8593C84.8312 88.0419 85 87.0611 85 86.0802C85 84.7725 84.6623 83.6281 84.1558 82.6473C83.6494 81.6665 82.8052 80.8491 81.6234 80.1952L48.8701 61.3958L48.7013 61.2323V58.7802C48.7013 57.7994 48.5325 56.8186 48.1948 56.1647C47.8571 55.3473 47.3506 54.6934 46.6753 54.203L44.6493 52.7317C43.974 52.4048 43.2987 51.7509 42.7922 51.2605C42.2857 50.7701 41.9481 49.9527 41.9481 48.9719C41.9481 47.8275 42.2857 46.8467 43.1299 46.0293C43.974 45.212 44.987 44.7216 46.1688 44.7216C47.1818 44.7216 48.026 44.885 48.5325 45.212C49.2078 45.5389 49.5455 45.8659 49.8831 46.3563C50.166 46.6302 50.3304 47.1335 50.4755 47.578C50.5036 47.6641 50.531 47.748 50.5584 47.8275L51.0649 49.2988C51.2338 49.7892 51.5714 50.1162 51.9091 50.4431C52.2468 50.7701 52.7532 50.9335 53.4286 50.9335C54.4416 50.9335 55.1169 50.6066 55.4545 49.9527C55.961 49.2988 56.1299 48.6449 56.1299 47.8275C56.1299 46.5198 55.7922 45.3754 55.2857 44.2311C54.7792 43.0868 54.1039 42.2695 53.0909 41.4521C52.0779 40.6347 51.0649 40.1443 49.8831 39.6539C48.7013 39.1635 47.3507 39 46.1688 39C44.8182 39 43.6364 39.3269 42.4545 39.8174C41.2727 40.3078 40.2597 40.9617 39.4156 41.779C38.5714 42.5964 37.8961 43.5772 37.3896 44.7216C36.8831 45.8659 36.7143 47.0102 36.7143 48.318C36.7143 49.4623 36.8831 50.6066 37.2208 51.5874C37.5584 52.5683 38.0649 53.5491 38.9091 54.3665C39.0779 54.5299 39.4156 54.8569 39.9221 55.1838L41.4416 56.1647C41.9481 56.4916 42.4545 56.982 42.7922 57.309C43.2987 57.6359 43.4675 57.9629 43.4675 58.2898V58.6168V59.2707V59.5976V59.9246V60.2515V60.415L10.039 79.5413C8.85714 80.1952 8.18182 81.0126 7.67532 82.1569ZM12.9091 86.5707C12.7403 86.0802 12.5714 85.5898 12.5714 85.2629V84.282C12.7403 83.9551 12.9091 83.7916 13.2468 83.6281L45.3247 65.4826C45.4935 65.3192 45.6623 65.3192 45.6623 65.3192H46H46.3377C46.5065 65.4826 46.5065 65.4826 46.8442 65.6461L78.2467 83.6281C78.5844 83.7916 78.7532 83.9551 78.9221 84.282C79.0909 84.4455 79.0909 84.9359 79.0909 85.2629C79.0909 85.5898 78.9221 86.0802 78.7532 86.5707C78.4156 87.0611 78.0779 87.388 77.5714 87.388H13.9221C13.5844 87.388 13.2468 87.0611 12.9091 86.5707Z" fill="white"/>
<g filter="url(#filter0_d)">
<path fill-rule="evenodd" clip-rule="evenodd" d="M20 85H27L26 97H21L20 85Z" fill="url(#paint0_linear)"/>
</g>
<g filter="url(#filter1_d)">
<path fill-rule="evenodd" clip-rule="evenodd" d="M63 85H70L69 97H64L63 85Z" fill="url(#paint1_linear)"/>
</g>
<path fill-rule="evenodd" clip-rule="evenodd" d="M177 2.41776L40.6816 9.8995C40.6816 9.8995 26.3489 2.79505 22.5668 0.475322C19.6421 -1.31776 16.9353 2.32479 19.2832 5.3628C21.6306 8.4008 31.7114 13.2343 31.7114 13.2343C31.7114 13.2343 10.0301 10.6106 3.95458 9.09137C-2.12239 7.5726 -0.603148 14.4037 4.50655 16.4759C9.61625 18.5471 28.2558 19.3447 28.2558 19.3447C28.2558 19.3447 4.95721 28.8372 1.88241 32.0042C-0.977343 34.9495 1.74429 39.1966 9.20191 36.8492C16.659 34.5017 33.7177 24.8057 33.7177 24.8057C33.7177 24.8057 27.9838 29.2539 31.9881 39.4733C35.4687 48.3551 38.6171 52.1783 41.7932 51.0734C44.6745 50.0708 43.5997 43.0633 40.6998 37.6783C37.7994 32.2919 42.2467 25.4833 47.3564 25.7591C52.4666 26.0358 54.7744 29.9445 50.079 33.6731C45.7899 37.0791 43.4501 43.0633 44.8307 47.7587C46.2123 52.454 51.5925 52.0913 54.4929 43.5293C57.3933 34.9672 68.556 37.4561 70.3792 19.8632L177 24.8057V2.41776Z" fill="white"/>
<defs>
<filter id="filter0_d" x="18" y="83" width="11" height="16" filterUnits="userSpaceOnUse" color-interpolation-filters="sRGB">
<feFlood flood-opacity="0" result="BackgroundImageFix"/>
<feColorMatrix in="SourceAlpha" type="matrix" values="0 0 0 0 0 0 0 0 0 0 0 0 0 0 0 0 0 0 127 0"/>
<feOffset/>
<feGaussianBlur stdDeviation="1"/>
<feColorMatrix type="matrix" values="0 0 0 0 0 0 0 0 0 0 0 0 0 0 0 0 0 0 0.100742 0"/>
<feBlend mode="normal" in2="BackgroundImageFix" result="effect1_dropShadow"/>
<feBlend mode="normal" in="SourceGraphic" in2="effect1_dropShadow" result="shape"/>
</filter>
<filter id="filter1_d" x="61" y="83" width="11" height="16" filterUnits="userSpaceOnUse" color-interpolation-filters="sRGB">
<feFlood flood-opacity="0" result="BackgroundImageFix"/>
<feColorMatrix in="SourceAlpha" type="matrix" values="0 0 0 0 0 0 0 0 0 0 0 0 0 0 0 0 0 0 127 0"/>
<feOffset/>
<feGaussianBlur stdDeviation="1"/>
<feColorMatrix type="matrix" values="0 0 0 0 0 0 0 0 0 0 0 0 0 0 0 0 0 0 0.100742 0"/>
<feBlend mode="normal" in2="BackgroundImageFix" result="effect1_dropShadow"/>
<feBlend mode="normal" in="SourceGraphic" in2="effect1_dropShadow" result="shape"/>
</filter>
<linearGradient id="paint0_linear" x1="20" y1="85" x2="20" y2="97" gradientUnits="userSpaceOnUse">
<stop stop-color="#EFEFEF"/>
<stop offset="1" stop-color="white"/>
</linearGradient>
<linearGradient id="paint1_linear" x1="63" y1="85" x2="63" y2="97" gradientUnits="userSpaceOnUse">
<stop stop-color="#EFEFEF"/>
<stop offset="1" stop-color="white"/>
</linearGradient>
</defs>
</svg>
