<svg width="56" height="56" viewBox="0 0 56 56" fill="none" xmlns="http://www.w3.org/2000/svg">
<g filter="url(#filter0_d)">
<path fill-rule="evenodd" clip-rule="evenodd" d="M28 45C39.0457 45 48 36.0457 48 25C48 13.9543 39.0457 5 28 5C16.9543 5 8 13.9543 8 25C8 36.0457 16.9543 45 28 45Z" fill="url(#paint0_linear)"/>
<path fill-rule="evenodd" clip-rule="evenodd" d="M28 45C39.0457 45 48 36.0457 48 25C48 13.9543 39.0457 5 28 5C16.9543 5 8 13.9543 8 25C8 36.0457 16.9543 45 28 45Z" stroke="#F1F1F1" stroke-width="4"/>
</g>
<path d="M33.81 25.0848C33.81 25.3438 33.551 25.6028 33.292 25.6028H28.423H27.387H22.518C22.259 25.6028 22 25.3438 22 25.0848C22 22.7021 23.3986 20.682 25.4187 19.7496L24.6935 14.5698C24.6935 14.4144 24.6935 14.259 24.7971 14.1554C24.9007 14.0518 25.0561 14 25.2115 14H30.5985C30.7539 14 30.9093 14.0518 31.0129 14.1554C31.1165 14.259 31.1683 14.4144 31.1165 14.5698L30.3913 19.7496C32.4114 20.682 33.81 22.7021 33.81 25.0848Z" fill="#FFB100"/>
<rect x="27" y="24" width="2" height="12" rx="1" fill="#FFB100"/>
<defs>
<filter id="filter0_d" x="0" y="0" width="56" height="56" filterUnits="userSpaceOnUse" color-interpolation-filters="sRGB">
<feFlood flood-opacity="0" result="BackgroundImageFix"/>
<feColorMatrix in="SourceAlpha" type="matrix" values="0 0 0 0 0 0 0 0 0 0 0 0 0 0 0 0 0 0 127 0"/>
<feOffset dy="3"/>
<feGaussianBlur stdDeviation="3"/>
<feColorMatrix type="matrix" values="0 0 0 0 0 0 0 0 0 0 0 0 0 0 0 0 0 0 0.240631 0"/>
<feBlend mode="normal" in2="BackgroundImageFix" result="effect1_dropShadow"/>
<feBlend mode="normal" in="SourceGraphic" in2="effect1_dropShadow" result="shape"/>
</filter>
<linearGradient id="paint0_linear" x1="8" y1="5" x2="8" y2="45" gradientUnits="userSpaceOnUse">
<stop stop-color="#ECECEC"/>
<stop offset="1" stop-color="white"/>
</linearGradient>
</defs>
</svg>
