<svg width="24" height="24" viewBox="0 0 24 24" fill="none" xmlns="http://www.w3.org/2000/svg">
<path fill-rule="evenodd" clip-rule="evenodd" d="M12 24C18.6274 24 24 18.6274 24 12C24 5.37258 18.6274 0 12 0C5.37258 0 0 5.37258 0 12C0 18.6274 5.37258 24 12 24Z" fill="#C3C8D0"/>
<path fill-rule="evenodd" clip-rule="evenodd" d="M16.3487 7.65104V6.5H15.4749V7.65104V7.65335H15.4726H7.64994V15.475H6.5V16.3487H7.65126V17.5H8.5251V16.3489H10.0893V15.4751H8.5251H8.52378V8.52719H15.4725V10.0913H16.3463V8.52488H16.3486H17.5V7.65104H16.3487ZM16.3463 15.4738H15.4725V15.9119H15.4738V16.3488H16.3463V15.4738ZM14.7821 16.3488H13.9083V15.4751H14.7821V16.3488ZM12.344 16.3488H13.2178V15.4751H12.344V16.3488ZM11.6536 16.3488H10.7797V15.4751H11.6536V16.3488ZM16.3463 14.7834H15.4725V13.9096H16.3463V14.7834ZM15.4725 13.2194H16.3463V12.3456H15.4725V13.2194ZM16.3463 11.6554H15.4725V10.7816H16.3463V11.6554Z" fill="white"/>
</svg>
