<svg width="24" height="24" viewBox="0 0 24 24" fill="none" xmlns="http://www.w3.org/2000/svg">
<path fill-rule="evenodd" clip-rule="evenodd" d="M12 24C18.6274 24 24 18.6274 24 12C24 5.37258 18.6274 0 12 0C5.37258 0 0 5.37258 0 12C0 18.6274 5.37258 24 12 24Z" fill="#C3C8D0"/>
<path fill-rule="evenodd" clip-rule="evenodd" d="M8.88292 13.0109L6.15459 10.6748C6.01859 10.5575 5.9669 10.375 6.02131 10.2081C6.07571 10.0412 6.22804 9.92131 6.41029 9.90306L10.0499 9.51979L11.5759 6.26333C11.652 6.10429 11.8153 6 11.9975 6H12.0002C12.1825 6 12.3457 6.10168 12.4219 6.26073L13.9723 9.51718L17.5902 9.90306C17.7724 9.92392 17.9247 10.0438 17.9792 10.2107C18.0336 10.3776 17.9792 10.5601 17.8431 10.6774L15.1475 12.9588L16.0152 16.3743C16.0587 16.5437 15.9934 16.7236 15.8493 16.8305C15.7051 16.9374 15.5065 16.9531 15.346 16.8696L12.0084 15.1306L8.74691 16.94C8.67619 16.9791 8.59458 17 8.5157 17C8.41777 17 8.32257 16.9713 8.24096 16.914C8.09135 16.8097 8.02335 16.6298 8.06415 16.4577L8.88292 13.0109ZM10.787 10.1142C10.7218 10.2576 10.5803 10.3541 10.4171 10.3724L7.54732 10.6774L9.70713 12.526C9.83226 12.6355 9.88666 12.7997 9.84858 12.9562L9.2039 15.6651L11.7717 14.2389C11.9105 14.1633 12.0818 14.1607 12.2233 14.2337L14.8727 15.6129L14.1845 12.9092C14.1437 12.7476 14.2008 12.5807 14.3287 12.4712L16.4504 10.6748L13.6106 10.3724C13.4474 10.3567 13.3086 10.2576 13.2406 10.1169L12.0029 7.52003L10.787 10.1142Z" fill="white"/>
</svg>
