<?xml version="1.0" encoding="UTF-8"?>
<svg width="65px" height="23px" viewBox="0 0 65 23" version="1.1" xmlns="http://www.w3.org/2000/svg" xmlns:xlink="http://www.w3.org/1999/xlink">
    <!-- Generator: Sketch 52.6 (67491) - http://www.bohemiancoding.com/sketch -->
    <title>ic-oculos2</title>
    <desc>Created with Sketch.</desc>
    <g id="UI" stroke="none" stroke-width="1" fill="none" fill-rule="evenodd">
        <g id="Assets" transform="translate(-1052.000000, -598.000000)" fill="#FFFFFF">
            <g id="ic-oculos2" transform="translate(1052.000000, 598.000000)">
                <g id="noun_Sunglasses_1748539">
                    <path d="M2.16666667,13.1396228 L5.29208333,13.1396228 C5.56292403,13.8894929 5.87727511,14.6225691 6.2335,15.3350348 L3.85016667,16.5395003 C3.48243977,16.7247087 3.25001354,17.1042316 3.25,17.5194971 L3.25,19.7094343 C3.24774796,20.1264264 3.48002486,20.508514 3.84908333,20.694906 L8.18241667,22.8848431 C8.51398561,23.0520291 8.90709482,23.0363341 9.22458333,22.8432343 L11.5613333,21.426345 C13.3068894,22.4735821 15.3035478,23.0159851 17.3333333,22.99434 C27.0519167,22.99434 30.3116667,11.846465 30.3333333,8.79040768 C30.3463333,8.60207309 30.50775,7.66477999 32.5,7.66477999 C34.49225,7.66477999 34.65475,8.60316806 34.6666667,8.75974856 C34.6666667,11.7731021 37.9166667,22.99434 47.6666667,22.99434 C49.9099275,23.0186143 52.1074226,22.3525908 53.9673333,21.0847148 L56.85875,22.8366645 C57.1762385,23.0297643 57.5693477,23.0454593 57.9009167,22.8782733 L62.23425,20.6883362 C62.6012069,20.5029979 62.8331143,20.1240613 62.8333333,19.7094343 L62.8333333,17.5194971 C62.8355854,17.102505 62.6033085,16.7204174 62.23425,16.5340254 L58.98425,14.8915726 C59.26375,14.2959097 59.5064167,13.7068166 59.71225,13.1396228 L63.9166667,13.1396228 C64.5149751,13.1396228 65,12.6493887 65,12.0446543 L65,7.66477999 C65,7.06004555 64.5149751,6.56981142 63.9166667,6.56981142 L59.9679167,6.56981142 C58.38625,4.16088057 54.22625,2.46148935 48.96125,2.22059626 L48.96125,2.21183651 C48.516,2.12095412 37.9610833,0 32.5,0 C27.0389167,0 16.484,2.12095412 16.0333333,2.21183651 L16.0333333,2.22059626 C10.7650833,2.46148935 6.60833333,4.16197554 5.02666667,6.56981142 L2.16666667,6.56981142 C0.970049709,6.56981142 0,7.55027968 0,8.75974856 L0,10.9496857 C0,12.1591546 0.970049709,13.1396228 2.16666667,13.1396228 Z M8.619,20.6511072 L5.41666667,19.0327437 L5.41666667,18.1961877 L7.32658333,17.2315204 C7.99401334,18.2515024 8.78320548,19.1845057 9.67633333,20.0094557 L8.619,20.6511072 Z M60.6666667,18.1961877 L60.6666667,19.0327437 L57.4643333,20.6511072 L55.744,19.6076022 C56.5797278,18.7663756 57.3162462,17.8301443 57.9388333,16.8176223 L60.6666667,18.1961877 Z M62.8333333,8.75974856 L62.8333333,10.9496857 L60.359,10.9496857 C60.5386342,10.2329061 60.6417782,9.49873803 60.6666667,8.75974856 L62.8333333,8.75974856 Z M58.5,8.75974856 C58.5,11.2113832 55.6725,20.8044028 47.6666667,20.8044028 C39.6608333,20.8044028 36.8333333,11.2113832 36.8333333,8.75974856 C36.8333333,6.6924479 41.4656667,4.37987428 47.6666667,4.37987428 C53.8676667,4.37987428 58.5,6.6924479 58.5,8.75974856 Z M41.0659167,3.04948747 C38.9222685,3.52470694 36.9829489,4.67480374 35.5268333,6.33439318 C34.6376649,5.72183041 33.5746974,5.41997233 32.5,5.47484285 C31.4248145,5.42125556 30.3618044,5.72466392 29.4731667,6.33877305 C28.016622,4.67916255 26.076956,3.5290852 23.933,3.05386734 C26.7667056,2.57535139 29.6286152,2.2867451 32.5,2.18993714 C35.3709258,2.28535402 38.2324706,2.57249688 41.0659167,3.04948747 Z M17.3333333,4.37987428 C23.5343333,4.37987428 28.1666667,6.6924479 28.1666667,8.75974856 C28.1666667,11.2113832 25.3391667,20.8044028 17.3333333,20.8044028 C9.3275,20.8044028 6.5,11.2113832 6.5,8.75974856 C6.5,6.6924479 11.1323333,4.37987428 17.3333333,4.37987428 Z M2.16666667,8.75974856 L4.33333333,8.75974856 C4.35822177,9.49873803 4.46136585,10.2329061 4.641,10.9496857 L2.16666667,10.9496857 L2.16666667,8.75974856 Z" id="Shape" fill-rule="nonzero"></path>
                    <path d="M26,10 L23.7824319,10 C23.7824319,11.2270394 22.0150302,16.9463776 17,16.9463776 L17,19 C23.320069,19 26,12.5618939 26,10 Z" id="Path" fill-rule="nonzero"></path>
                    <path d="M48,19 C54.320069,19 57,12.5618939 57,10 L54.7824319,10 C54.7824319,11.2270394 53.0150302,16.9463776 48,16.9463776 L48,19 Z" id="Path" fill-rule="nonzero"></path>
                </g>
            </g>
        </g>
    </g>
</svg>