<?xml version="1.0" encoding="UTF-8"?>
<svg width="45px" height="45px" viewBox="0 0 45 45" version="1.1" xmlns="http://www.w3.org/2000/svg" xmlns:xlink="http://www.w3.org/1999/xlink">
    <!-- Generator: Sketch 52.6 (67491) - http://www.bohemiancoding.com/sketch -->
    <title>ic-roupas</title>
    <desc>Created with Sketch.</desc>
    <g id="UI" stroke="none" stroke-width="1" fill="none" fill-rule="evenodd">
        <g id="Assets" transform="translate(-1323.000000, -587.000000)" fill="#FFFFFF">
            <g id="ic-roupas" transform="translate(1323.000000, 587.000000)">
                <g id="noun_Shirt_1444082">
                    <g id="Group" fill-rule="nonzero">
                        <g id="Path">
                            <path d="M34.7638183,45 L10.2344238,45 C8.26040034,45 6.65375976,43.3937988 6.65375976,41.4197754 L6.65375976,0.9 C6.65375976,0.40297851 7.0562988,0 7.55375976,0 C8.05122072,0 8.45375976,0.40297851 8.45375976,0.9 L8.45375976,41.4197754 C8.45375976,42.4015137 9.25268553,43.2 10.2344238,43.2 L34.7638183,43.2 C35.7455566,43.2 36.5436035,42.4015137 36.5436035,41.4197754 L36.5436035,0.9 C36.5436035,0.40297851 36.9461425,0 37.4436035,0 C37.9410645,0 38.3436035,0.40297851 38.3436035,0.9 L38.3436035,41.4197754 C38.3436035,43.3937988 36.7378418,45 34.7638183,45 Z"></path>
                            <path d="M44.0230957,25.2083496 L37.4436035,25.2083496 C36.9461426,25.2083496 36.5436035,24.8053711 36.5436035,24.3083496 C36.5436035,23.8113281 36.9461426,23.4083496 37.4436035,23.4083496 L43.1230957,23.4083496 L43.1230957,6.78559572 C43.1230957,4.03637697 40.8862793,1.8 38.1370605,1.8 L29.9649902,1.8 C29.4675293,1.8 29.0649902,1.39702149 29.0649902,0.9 C29.0649902,0.40297851 29.4675293,0 29.9649902,0 L38.1370605,0 C41.8785645,0 44.9230957,3.04409178 44.9230957,6.78559572 L44.9230957,24.3083497 C44.9230957,24.8053711 44.5205567,25.2083496 44.0230957,25.2083496 Z"></path>
                            <path d="M7.55551755,25.2083496 L0.97690428,25.2083496 C0.47944332,25.2083496 0.07690428,24.8053711 0.07690428,24.3083496 L0.07690428,6.78559572 C0.07690428,3.04409178 3.11704101,0 6.85327149,0 L15.0341309,0 C15.5315919,0 15.9341309,0.40297851 15.9341309,0.9 C15.9341309,1.39702149 15.5315919,1.8 15.0341309,1.8 L6.85327149,1.8 C4.1093262,1.8 1.87690428,4.03637697 1.87690428,6.78559572 L1.87690428,23.4083497 L7.55551755,23.4083497 C8.05297851,23.4083497 8.45551755,23.8113282 8.45551755,24.3083497 C8.45551755,24.8053711 8.05297851,25.2083496 7.55551755,25.2083496 Z"></path>
                            <path d="M22.495166,9.26982423 C17.8853027,9.26982423 14.1341308,5.51513673 14.1341308,0.9 C14.1341308,0.40297851 14.5366699,-8.8817842e-17 15.0341308,-8.8817842e-17 C15.5315918,-8.8817842e-17 15.9341308,0.40297851 15.9341308,0.9 C15.9341308,4.52241207 18.8775878,7.46982423 22.495166,7.46982423 C26.1180175,7.46982423 29.0649902,4.52241216 29.0649902,0.9 C29.0649902,0.40297851 29.4675293,-8.8817842e-16 29.9649902,-8.8817842e-16 C30.4624512,-8.8817842e-16 30.8649902,0.40297851 30.8649902,0.9 C30.8649902,5.51513673 27.1103027,9.26982423 22.495166,9.26982423 Z"></path>
                        </g>
                        <path d="M22.495166,45 C21.997705,45 21.595166,44.5970215 21.595166,44.1 L21.595166,8.36982423 C21.595166,7.87280274 21.997705,7.46982423 22.495166,7.46982423 C22.992627,7.46982423 23.395166,7.87280274 23.395166,8.36982423 L23.395166,44.1 C23.395166,44.5970215 22.992627,45 22.495166,45 Z" id="Path"></path>
                    </g>
                </g>
            </g>
        </g>
    </g>
</svg>