<?xml version="1.0" encoding="UTF-8"?>
<svg width="49px" height="45px" viewBox="0 0 49 45" version="1.1" xmlns="http://www.w3.org/2000/svg" xmlns:xlink="http://www.w3.org/1999/xlink">
    <!-- Generator: Sketch 52.6 (67491) - http://www.bohemiancoding.com/sketch -->
    <title>ic-bolsas</title>
    <desc>Created with Sketch.</desc>
    <g id="UI" stroke="none" stroke-width="1" fill="none" fill-rule="evenodd">
        <g id="Assets" transform="translate(-1239.000000, -587.000000)" fill="#FFFFFF">
            <g id="ic-bolsas" transform="translate(1239.000000, 587.000000)">
                <g id="noun_Purse_1710585">
                    <path d="M46.813252,10.5789851 C46.813252,10.5789851 40.7146961,10.6960179 37.4321775,10.4056394 C35.8151733,5.19008808 31.6335024,0 24.3604135,0 C15.741781,0 12.6116529,6.92648324 12.6341929,10.5657638 C12.0461914,10.6147315 2.61366681,10.4428548 2.61366681,10.4428548 C2.61366681,10.4428548 0.276850721,29.2562508 0,30.1939826 L1.91100498,30.2791864 C1.91100498,30.2791864 2.08152542,39.3465381 2.15257561,41.4834892 C2.15257561,41.4834892 2.06682538,44.388254 5.61737463,44.793217 C9.16841388,45.1976903 40.6534459,44.8759724 43.0397521,44.9215124 C45.7445592,44.9724388 47.5198338,44.7653054 47.3973335,42.8403845 C47.2743432,40.914974 47.2464131,30.0740117 47.2464131,30.0740117 C47.2464131,30.0740117 48.9452475,30.059811 48.9986576,29.777757 C49.0481478,29.3546759 47.7182843,11.3947872 46.813252,10.5789851 Z M24.6490242,1.59096105 C29.9062479,1.69036551 34.3402695,5.23415902 35.0777214,10.3189665 L32.9917859,10.3909491 C32.4346545,7.17181149 27.8183525,3.41402907 24.8411047,3.55358705 C17.8487865,3.88020171 16.8619239,10.682307 16.8619239,10.682307 C16.8619239,10.682307 14.6912183,10.6132625 14.3962375,10.7258882 C15.4208302,5.86339416 19.5383109,1.64090812 24.6490242,1.59096105 Z M30.6309598,10.2538395 C30.71916,10.3037865 18.9238493,10.2097685 18.8415291,10.2876272 C19.6877613,7.79370147 21.880517,5.27431255 24.8415947,5.15434165 C27.5674718,5.27431255 29.8317677,7.73885763 30.6309598,10.2538395 Z M44.3534455,43.5122216 C44.0476847,43.5068351 8.51475218,43.6855673 5.74575497,43.2561204 C4.23802104,43.0220548 3.63972948,41.9530896 3.54074922,41.0853817 C3.16932826,37.8295183 3.42216892,30.5235353 3.58092933,30.2547025 C3.78231985,29.9148666 15.0077591,30.1685193 16.5297031,30.1915342 C16.5297031,30.1915342 16.5595931,31.9333158 18.9027792,32.7652773 C20.4952834,33.3303647 26.2738684,33.6129084 29.935648,33.1183345 C32.4096644,32.9420507 32.6879852,31.4407006 32.6512351,30.1004542 C35.4893225,29.841415 46.07041,30.0950678 46.07041,30.0950678 L46.0807,41.4844685 C46.0155299,42.7091511 45.3442281,43.5293603 44.3534455,43.5122216 Z M18.5744784,29.0055361 C18.5744784,25.6497786 23.1711804,26.2555093 24.7342844,26.2559989 C28.6101945,26.2569783 31.0709809,26.4073092 31.0136508,29.3791598 C30.9445606,32.0586731 28.4274241,31.4862405 24.933715,31.5180696 C21.1729552,31.552347 18.4480581,31.4784057 18.5744784,29.0055361 Z M32.611055,28.3248849 C32.6972952,27.0164675 31.4477919,25.6380264 29.7587575,25.3476478 C27.1813508,24.8305488 20.6089637,24.887841 19.2310801,25.3226743 C16.8325239,26.0792255 16.9550242,27.9346122 16.6144733,28.4140061 C16.2739224,28.8934001 2.00214522,28.3674868 2.00214522,28.3674868 C2.00214522,28.3674868 4.25027107,12.17925 4.26546111,12.085232 C4.60013198,12.271799 45.5137686,11.9207005 45.2001678,12.2130377 C45.3946983,12.3849144 47.7756145,28.2489849 47.7756145,28.2489849 C47.7251443,28.6789215 33.2186565,28.220094 32.611055,28.3248849 Z" id="Shape" fill-rule="nonzero"></path>
                </g>
            </g>
        </g>
    </g>
</svg>