<?xml version="1.0" encoding="UTF-8"?>
<svg width="51px" height="32px" viewBox="0 0 51 32" version="1.1" xmlns="http://www.w3.org/2000/svg" xmlns:xlink="http://www.w3.org/1999/xlink">
    <!-- Generator: Sketch 52.6 (67491) - http://www.bohemiancoding.com/sketch -->
    <title>ic-calcados</title>
    <desc>Created with Sketch.</desc>
    <g id="UI" stroke="none" stroke-width="1" fill="none" fill-rule="evenodd">
        <g id="Assets" transform="translate(-1152.000000, -593.000000)" fill="#FFFFFF">
            <g id="ic-calcados" transform="translate(1152.000000, 593.000000)">
                <g id="noun_Shoe_1665543">
                    <path d="M50.0033384,21.8084205 C48.8995401,19.8675275 46.2135922,18.1000637 43.6208823,18.4672911 C42.6195878,18.5743748 41.6107648,18.6075475 40.6042582,18.5685551 L40.4739567,18.5685551 C36.853892,18.3654451 33.3513882,17.2009093 30.3266564,15.193089 L30.2965423,15.193089 C25.5738375,12.8203692 20.6918753,7.26132582 14.8115142,0.27818496 L14.7402827,0.207183777 L14.6812127,0.160043648 L14.6047692,0.106501773 L14.5341168,0.0710011821 L14.3864418,0 L14.3094192,0 L14.2208142,0 L14.1380003,0 L13.9613694,0 L13.8849259,0 L13.7905297,0 L13.7963209,0 C12.2819281,0.63144494 10.9401124,1.61789579 9.8826435,2.87729381 C7.54590359,3.38303174 5.12750809,3.36499045 2.79829671,2.82375193 L2.75660024,2.82375193 L2.65004258,2.82375193 L2.47920286,2.82375193 L2.39638903,2.82375193 L2.30199285,2.82375193 L2.23713166,2.82375193 L2.14273548,2.87147404 L2.08945665,2.90581068 L2.00664282,2.97099209 L1.98926929,3.08971538 L1.92440811,3.1671183 L1.88329075,3.22647995 L1.81842957,3.32716195 L1.81842957,3.39234337 C1.80453074,3.42551605 1.79294839,3.45868873 1.78252427,3.49302537 C1.78252427,3.49302537 1.78252427,3.52270619 1.78252427,3.54074748 C1.78078692,3.57275621 1.78078692,3.60418296 1.78252427,3.63560971 C1.78136604,3.66529053 1.78136604,3.69555333 1.78252427,3.72465218 C1.78252427,3.72465218 1.78252427,3.76015277 1.78252427,3.77761208 C2.57070346,10.6693826 2.25971725,17.6426298 0.861727133,24.4360462 C0.32198944,24.8230608 0.00173735309,25.448104 0,26.1144676 L0,29.9240884 C0,31.0711649 0.924850962,32 2.06629194,32 L48.9342872,32 C50.0757282,32 51,31.0705829 51,29.9240884 L51,26.1144676 C50.9918924,25.5773029 50.7764606,25.0645812 50.3982967,24.6851323 C50.6971214,23.7138129 50.5517629,22.6610166 50.0033384,21.8084205 Z M41.2719809,20.3726835 L41.3426333,20.3726835 C42.1615057,20.3709375 42.9786408,20.3284532 43.7928803,20.2411567 L43.8334185,20.2411567 C45.6049395,19.9682095 47.6648612,21.2974448 48.4680974,22.702919 C48.7275422,23.0986633 48.8288878,23.5770483 48.751286,24.0443757 L41.1243059,24.0443757 C41.0646568,22.8187324 41.1138818,21.5890152 41.2719809,20.3726835 Z M13.8733436,1.9275075 C14.6094021,2.80978449 15.3396696,3.67169228 16.0635667,4.51439483 L14.7472322,4.51439483 C14.2584568,4.51439483 13.8617612,4.91246704 13.8617612,5.40423752 C13.8617612,5.896008 14.2584568,6.2940802 14.7472322,6.2940802 L16.8841765,6.2940802 L16.3293817,8.4712558 C16.2089252,8.94789488 16.4955885,9.43268164 16.9693068,9.55373284 C17.4441833,9.67478403 17.9260092,9.38670547 18.0470448,8.91006638 L18.4715381,7.2491043 C19.8648952,8.80298263 21.2171351,10.2154406 22.5392608,11.5085933 L20.7683189,11.8944439 C20.2882303,11.9875602 19.9737694,12.4537237 20.0664282,12.9367646 C20.1585079,13.4198054 20.6229603,13.7352369 21.103628,13.6421206 C21.1181059,13.6397927 21.1320048,13.6363008 21.1464827,13.6328089 L23.2423097,13.1637356 L23.1594958,15.4060926 C23.1432805,15.8955351 23.5226026,16.3064108 24.0096406,16.3261981 L24.0455459,16.3261981 C24.5210015,16.3261981 24.9124851,15.949077 24.9310169,15.471856 L24.9964572,13.6915886 C26.3156873,14.8287715 27.7501618,15.822788 29.2767161,16.6585069 L27.7235224,17.5239065 C27.2665985,17.7002455 27.037847,18.2147131 27.2127406,18.6733109 C27.3882133,19.1319087 27.9001533,19.3623716 28.356498,19.1871965 C28.4265713,19.1592616 28.4937489,19.123761 28.5562936,19.0783668 L30.4268438,18.0343003 L31.0175439,20.2056561 C31.1200477,20.5967446 31.4715721,20.8696917 31.8740589,20.8702737 C31.9487651,20.8801673 32.0240504,20.8801673 32.0987566,20.8702737 C32.5713166,20.7451487 32.8539261,20.259198 32.730574,19.7848868 L32.3645716,18.3724288 C34.6098109,19.4415204 37.0270482,20.0991543 39.5016181,20.3127398 C39.3475728,21.5540966 39.2989269,22.8065109 39.3539431,24.0560153 C25.4278998,24.0920978 16.2593085,17.4651269 11.3536025,3.92077839 C12.060126,3.10251887 12.9149038,2.42626171 13.8733436,1.9275075 Z M3.59516266,4.79898154 C4.54781128,4.95553333 5.51088401,5.03468219 6.47627321,5.03642812 C7.58122977,5.03526416 8.68444899,4.93167227 9.77029467,4.72798036 C13.4245273,14.6710557 19.4878896,21.1263435 27.8816215,24.0391379 L2.74501788,24.0391379 C3.95363652,17.7002455 4.23972066,11.2193507 3.59516266,4.79898154 Z M33.0832567,30.2203146 L2.06571283,30.2203146 C1.90298075,30.2203146 1.7703628,30.0870419 1.7703628,29.9240884 L1.7703628,28.9626625 L28.1769716,28.9626625 C28.6669051,28.9626625 29.0624425,28.5645903 29.0624425,28.0734018 C29.0624425,27.5810494 28.666326,27.1829772 28.1769716,27.1829772 L1.77094192,27.1829772 L1.77094192,26.1144676 C1.77094192,25.9509321 1.90355987,25.8182413 2.06629194,25.8182413 L33.0838358,25.8182413 L33.0838358,30.2203146 L33.0832567,30.2203146 Z M49.2180548,29.9240884 C49.2180548,30.0870419 49.0854369,30.2203146 48.9221257,30.2203146 L34.8547777,30.2203146 L34.8547777,25.8188233 L48.9342872,25.8188233 C49.0970192,25.8188233 49.2296372,25.951514 49.2296372,26.1150496 L49.2180548,29.9240884 Z" id="Shape" fill-rule="nonzero"></path>
                    <path d="M10.1997314,12.4878049 C8.46649899,12.4878049 7.06153846,13.885494 7.06153846,15.6097561 C7.06153846,17.3340181 8.46649899,18.7317073 10.1997314,18.7317073 C11.933501,18.7317073 13.3384615,17.3340181 13.3384615,15.6097561 C13.3384615,13.885494 11.9329637,12.4878049 10.1997314,12.4878049 Z M10.1997314,17.0918946 C9.37394768,17.0918946 8.70450951,16.4259211 8.70450951,15.6044112 C8.70450951,14.7829014 9.37394768,14.1169279 10.1997314,14.1169279 C11.025515,14.1169279 11.6954905,14.7829014 11.6954905,15.6044112 C11.6954905,16.4259211 11.025515,17.0918946 10.1997314,17.0918946 Z" id="Shape" fill-rule="nonzero"></path>
                </g>
            </g>
        </g>
    </g>
</svg>